<svg width="820" height="836" viewBox="0 0 820 836" fill="none" xmlns="http://www.w3.org/2000/svg">
<path d="M836 639.373H0V639.791H836V639.373Z" fill="#EBEBEB"/>
<path d="M752.233 666.275H696.856V666.693H752.233V666.275Z" fill="#EBEBEB"/>
<path d="M553.8 670.823H539.27V671.241H553.8V670.823Z" fill="#EBEBEB"/>
<path d="M695.184 650.759H663.099V651.177H695.184V650.759Z" fill="#EBEBEB"/>
<path d="M159.927 653.568H87.7129V653.986H159.927V653.568Z" fill="#EBEBEB"/>
<path d="M185.408 653.568H174.824V653.986H185.408V653.568Z" fill="#EBEBEB"/>
<path d="M376.451 660.624H219.818V661.042H376.451V660.624Z" fill="#EBEBEB"/>
<path d="M360.098 125.968L361.503 128.828C361.585 128.995 361.707 129.139 361.859 129.247C362.011 129.355 362.187 129.424 362.372 129.446L365.532 129.914C365.741 129.947 365.937 130.037 366.098 130.174C366.259 130.311 366.378 130.491 366.442 130.693C366.507 130.894 366.513 131.11 366.462 131.315C366.411 131.52 366.303 131.707 366.151 131.854L363.877 134.094C363.743 134.221 363.642 134.379 363.584 134.554C363.526 134.729 363.512 134.916 363.543 135.098L364.078 138.241C364.118 138.453 364.097 138.673 364.017 138.874C363.936 139.075 363.801 139.249 363.625 139.375C363.449 139.501 363.241 139.575 363.026 139.588C362.81 139.6 362.595 139.55 362.406 139.445L359.58 137.957C359.417 137.874 359.236 137.831 359.053 137.831C358.87 137.831 358.69 137.874 358.527 137.957L355.684 139.445C355.496 139.55 355.281 139.6 355.065 139.588C354.849 139.575 354.641 139.501 354.465 139.375C354.29 139.249 354.154 139.075 354.074 138.874C353.993 138.673 353.972 138.453 354.012 138.241L354.564 135.098C354.591 134.916 354.575 134.73 354.517 134.556C354.459 134.382 354.36 134.224 354.23 134.094L351.939 131.854C351.787 131.705 351.68 131.517 351.629 131.311C351.578 131.105 351.587 130.888 351.653 130.686C351.719 130.484 351.84 130.305 352.003 130.169C352.166 130.032 352.364 129.944 352.574 129.914L355.734 129.446C355.919 129.421 356.094 129.351 356.245 129.243C356.396 129.136 356.52 128.993 356.604 128.828L358.008 125.968C358.101 125.77 358.249 125.602 358.434 125.484C358.619 125.366 358.834 125.304 359.053 125.304C359.273 125.304 359.488 125.366 359.673 125.484C359.858 125.602 360.005 125.77 360.098 125.968V125.968Z" fill="#F5F5F5"/>
<path d="M151.918 361.47L153.339 364.345C153.421 364.51 153.541 364.652 153.69 364.76C153.838 364.867 154.01 364.937 154.192 364.964L157.352 365.432C157.562 365.462 157.76 365.55 157.923 365.686C158.086 365.823 158.208 366.002 158.274 366.204C158.34 366.406 158.348 366.623 158.298 366.829C158.247 367.035 158.139 367.223 157.987 367.372L155.697 369.596C155.565 369.727 155.468 369.889 155.413 370.067C155.357 370.244 155.346 370.432 155.379 370.615L155.914 373.759C155.954 373.971 155.933 374.191 155.853 374.392C155.773 374.593 155.637 374.767 155.461 374.893C155.286 375.019 155.078 375.093 154.862 375.105C154.646 375.118 154.431 375.068 154.242 374.963L151.416 373.475C151.25 373.392 151.067 373.349 150.881 373.349C150.696 373.349 150.513 373.392 150.346 373.475L147.521 374.963C147.332 375.068 147.117 375.118 146.901 375.105C146.685 375.093 146.477 375.019 146.301 374.893C146.126 374.767 145.99 374.593 145.91 374.392C145.83 374.191 145.808 373.971 145.849 373.759L146.384 370.615C146.417 370.432 146.405 370.244 146.35 370.067C146.295 369.889 146.197 369.727 146.066 369.596L143.792 367.372C143.64 367.223 143.533 367.035 143.482 366.829C143.431 366.623 143.44 366.406 143.506 366.204C143.572 366.002 143.693 365.823 143.856 365.686C144.019 365.55 144.217 365.462 144.427 365.432L147.588 364.964C147.769 364.937 147.941 364.867 148.09 364.76C148.238 364.652 148.359 364.51 148.44 364.345L149.861 361.47C149.953 361.275 150.099 361.11 150.281 360.994C150.463 360.879 150.674 360.818 150.89 360.818C151.105 360.818 151.316 360.879 151.498 360.994C151.681 361.11 151.826 361.275 151.918 361.47Z" fill="#F0F0F0"/>
<path d="M125.668 203.466L127.072 206.325C127.153 206.491 127.272 206.636 127.421 206.747C127.569 206.857 127.742 206.93 127.925 206.96L131.085 207.412C131.295 207.445 131.492 207.535 131.654 207.674C131.816 207.812 131.937 207.992 132.003 208.195C132.068 208.397 132.077 208.614 132.027 208.821C131.977 209.028 131.871 209.217 131.72 209.368L129.43 211.592C129.3 211.722 129.203 211.88 129.145 212.054C129.086 212.228 129.07 212.413 129.095 212.595L129.647 215.755C129.687 215.967 129.666 216.187 129.586 216.388C129.506 216.589 129.37 216.763 129.194 216.889C129.019 217.015 128.811 217.089 128.595 217.101C128.379 217.114 128.164 217.064 127.975 216.959L125.149 215.471C124.986 215.38 124.801 215.332 124.614 215.332C124.427 215.332 124.243 215.38 124.079 215.471L121.253 216.959C121.065 217.064 120.85 217.114 120.634 217.101C120.418 217.089 120.21 217.015 120.034 216.889C119.859 216.763 119.723 216.589 119.643 216.388C119.562 216.187 119.541 215.967 119.581 215.755L120.117 212.595C120.151 212.413 120.138 212.225 120.08 212.05C120.021 211.874 119.919 211.716 119.782 211.592L117.508 209.368C117.351 209.221 117.239 209.033 117.185 208.826C117.131 208.618 117.136 208.399 117.201 208.195C117.266 207.99 117.387 207.808 117.551 207.669C117.715 207.531 117.914 207.441 118.127 207.412L121.287 206.96C121.472 206.93 121.647 206.857 121.798 206.747C121.949 206.636 122.072 206.492 122.156 206.325L123.561 203.466C123.652 203.262 123.8 203.089 123.986 202.968C124.173 202.847 124.391 202.782 124.614 202.782C124.837 202.782 125.055 202.847 125.242 202.968C125.429 203.089 125.577 203.262 125.668 203.466V203.466Z" fill="#F0F0F0"/>
<path d="M252.355 275.328L253.191 277C253.242 277.098 253.316 277.182 253.406 277.246C253.496 277.31 253.6 277.352 253.709 277.368L255.599 277.636C255.724 277.656 255.842 277.71 255.939 277.794C256.035 277.877 256.106 277.985 256.145 278.107C256.183 278.229 256.186 278.358 256.155 278.482C256.123 278.605 256.058 278.718 255.966 278.806L254.612 280.144C254.531 280.219 254.471 280.314 254.436 280.419C254.401 280.524 254.392 280.636 254.412 280.745L254.729 282.618C254.756 282.744 254.746 282.876 254.699 282.996C254.653 283.117 254.573 283.221 254.469 283.297C254.365 283.373 254.24 283.417 254.112 283.424C253.983 283.431 253.855 283.401 253.743 283.337L252.071 282.451C251.972 282.401 251.863 282.375 251.753 282.375C251.643 282.375 251.534 282.401 251.435 282.451L249.763 283.337C249.651 283.401 249.523 283.431 249.394 283.424C249.266 283.417 249.142 283.373 249.037 283.297C248.933 283.221 248.853 283.117 248.807 282.996C248.761 282.876 248.75 282.744 248.777 282.618L249.095 280.745C249.114 280.636 249.105 280.524 249.07 280.419C249.035 280.314 248.975 280.219 248.894 280.144L247.523 278.806C247.431 278.716 247.366 278.603 247.335 278.478C247.305 278.353 247.31 278.223 247.35 278.101C247.39 277.979 247.463 277.87 247.562 277.788C247.661 277.706 247.78 277.653 247.907 277.636L249.797 277.368C249.906 277.352 250.01 277.31 250.1 277.246C250.19 277.182 250.264 277.098 250.315 277L251.151 275.328C251.214 275.224 251.302 275.138 251.407 275.079C251.513 275.019 251.632 274.988 251.753 274.988C251.874 274.988 251.993 275.019 252.099 275.079C252.204 275.138 252.293 275.224 252.355 275.328V275.328Z" fill="#F0F0F0"/>
<path d="M201.108 494.41L201.944 496.082C201.994 496.182 202.068 496.269 202.158 496.336C202.248 496.403 202.352 496.448 202.462 496.467L204.352 496.734C204.479 496.752 204.599 496.805 204.697 496.887C204.796 496.969 204.869 497.078 204.909 497.2C204.95 497.322 204.955 497.452 204.924 497.577C204.893 497.702 204.828 497.815 204.736 497.905L203.365 499.226C203.284 499.305 203.224 499.403 203.189 499.51C203.154 499.618 203.146 499.733 203.165 499.844L203.499 501.717C203.521 501.844 203.507 501.975 203.458 502.094C203.409 502.213 203.328 502.316 203.223 502.391C203.118 502.466 202.994 502.51 202.866 502.518C202.737 502.526 202.609 502.498 202.496 502.436L200.824 501.55C200.725 501.5 200.616 501.474 200.506 501.474C200.396 501.474 200.287 501.5 200.188 501.55L198.516 502.436C198.404 502.493 198.278 502.518 198.152 502.508C198.026 502.497 197.905 502.453 197.803 502.378C197.701 502.304 197.622 502.203 197.573 502.086C197.525 501.969 197.51 501.842 197.53 501.717L197.848 499.844C197.869 499.734 197.863 499.62 197.831 499.513C197.799 499.405 197.742 499.307 197.664 499.226L196.293 497.905C196.201 497.816 196.136 497.704 196.104 497.581C196.073 497.457 196.076 497.327 196.115 497.206C196.153 497.084 196.224 496.976 196.321 496.893C196.417 496.809 196.535 496.755 196.661 496.734L198.55 496.467C198.661 496.45 198.767 496.407 198.857 496.339C198.948 496.272 199.02 496.184 199.068 496.082L199.921 494.41C199.981 494.306 200.068 494.22 200.172 494.16C200.276 494.099 200.394 494.068 200.514 494.068C200.635 494.068 200.753 494.099 200.857 494.16C200.961 494.22 201.048 494.306 201.108 494.41V494.41Z" fill="#F5F5F5"/>
<path d="M726.317 128.577L727.153 130.249C727.201 130.349 727.273 130.436 727.364 130.5C727.455 130.565 727.56 130.605 727.671 130.617L729.56 130.901C729.688 130.918 729.807 130.971 729.906 131.054C730.005 131.136 730.078 131.244 730.118 131.366C730.158 131.488 730.163 131.619 730.133 131.743C730.102 131.868 730.037 131.982 729.945 132.071L728.574 133.392C728.494 133.469 728.435 133.564 728.4 133.669C728.365 133.773 728.356 133.885 728.373 133.994L728.708 135.883C728.73 136.01 728.715 136.141 728.667 136.26C728.618 136.379 728.536 136.482 728.432 136.558C728.327 136.633 728.203 136.677 728.075 136.685C727.946 136.692 727.818 136.664 727.705 136.602L726.033 135.716C725.934 135.666 725.825 135.64 725.715 135.64C725.604 135.64 725.496 135.666 725.397 135.716L723.725 136.602C723.613 136.659 723.486 136.684 723.36 136.674C723.235 136.664 723.114 136.619 723.012 136.545C722.91 136.47 722.83 136.369 722.782 136.253C722.734 136.136 722.719 136.008 722.739 135.883L723.056 133.994C723.076 133.886 723.07 133.776 723.038 133.671C723.006 133.566 722.949 133.471 722.872 133.392L721.468 132.088C721.376 132 721.311 131.887 721.28 131.764C721.248 131.64 721.252 131.511 721.29 131.389C721.328 131.267 721.399 131.159 721.496 131.076C721.592 130.992 721.71 130.938 721.836 130.918L723.725 130.633C723.836 130.623 723.943 130.583 724.034 130.519C724.125 130.454 724.197 130.367 724.243 130.266L725.096 128.594C725.147 128.475 725.232 128.374 725.339 128.302C725.446 128.231 725.572 128.192 725.701 128.19C725.83 128.188 725.957 128.224 726.066 128.292C726.175 128.361 726.262 128.46 726.317 128.577V128.577Z" fill="#F5F5F5"/>
<path d="M711.787 444.133L713.242 447.093C713.324 447.264 713.449 447.413 713.603 447.524C713.758 447.635 713.939 447.705 714.128 447.728L717.472 448.213C717.69 448.242 717.896 448.333 718.065 448.474C718.234 448.615 718.36 448.802 718.429 449.011C718.497 449.221 718.504 449.446 718.45 449.659C718.396 449.873 718.283 450.067 718.124 450.219L715.616 452.527C715.481 452.664 715.381 452.83 715.323 453.013C715.264 453.196 715.25 453.391 715.281 453.58L715.85 456.924C715.878 457.135 715.85 457.349 715.767 457.545C715.684 457.741 715.55 457.911 715.38 458.037C715.209 458.163 715.007 458.242 714.796 458.263C714.584 458.285 714.371 458.25 714.178 458.161L711.252 456.623C711.082 456.532 710.893 456.485 710.7 456.485C710.508 456.485 710.318 456.532 710.148 456.623L707.256 458.128C707.063 458.223 706.848 458.263 706.634 458.243C706.42 458.224 706.216 458.146 706.043 458.019C705.87 457.891 705.736 457.718 705.655 457.519C705.574 457.32 705.549 457.103 705.584 456.891L706.136 453.547C706.171 453.357 706.159 453.162 706.101 452.978C706.042 452.794 705.939 452.628 705.801 452.493L703.427 450.186C703.273 450.03 703.166 449.835 703.117 449.621C703.067 449.408 703.078 449.186 703.147 448.978C703.216 448.77 703.341 448.586 703.509 448.445C703.676 448.304 703.879 448.212 704.096 448.18L707.356 447.695C707.545 447.672 707.725 447.601 707.88 447.49C708.035 447.379 708.16 447.231 708.242 447.059L709.714 444.1C709.82 443.917 709.972 443.766 710.156 443.662C710.34 443.557 710.549 443.504 710.76 443.508C710.971 443.511 711.178 443.571 711.359 443.681C711.539 443.791 711.687 443.947 711.787 444.133V444.133Z" fill="#F0F0F0"/>
<path d="M532.682 167.016C532.682 167.456 532.552 167.886 532.308 168.251C532.063 168.617 531.716 168.902 531.31 169.07C530.903 169.239 530.456 169.283 530.025 169.197C529.593 169.111 529.197 168.899 528.886 168.588C528.575 168.277 528.363 167.881 528.278 167.45C528.192 167.018 528.236 166.571 528.404 166.165C528.572 165.759 528.857 165.411 529.223 165.167C529.589 164.923 530.019 164.792 530.459 164.792C531.048 164.792 531.614 165.027 532.031 165.444C532.448 165.861 532.682 166.426 532.682 167.016V167.016Z" fill="#F0F0F0"/>
<path d="M596.503 598.024C596.503 598.464 596.372 598.894 596.128 599.26C595.884 599.625 595.536 599.91 595.13 600.079C594.724 600.247 594.276 600.291 593.845 600.205C593.414 600.119 593.018 599.908 592.707 599.597C592.396 599.286 592.184 598.889 592.098 598.458C592.012 598.027 592.056 597.58 592.224 597.173C592.393 596.767 592.678 596.42 593.044 596.175C593.409 595.931 593.839 595.8 594.279 595.8C594.572 595.798 594.862 595.854 595.133 595.965C595.403 596.076 595.649 596.24 595.856 596.447C596.063 596.654 596.227 596.9 596.338 597.171C596.449 597.441 596.505 597.732 596.503 598.024V598.024Z" fill="#F5F5F5"/>
<path d="M221.958 139.294C221.958 141.176 221.4 143.015 220.355 144.58C219.309 146.144 217.823 147.364 216.085 148.084C214.347 148.804 212.434 148.992 210.588 148.625C208.743 148.258 207.048 147.352 205.717 146.021C204.387 144.691 203.481 142.996 203.113 141.15C202.746 139.305 202.935 137.392 203.655 135.654C204.375 133.915 205.594 132.429 207.159 131.384C208.723 130.339 210.563 129.781 212.444 129.781C214.968 129.781 217.387 130.783 219.172 132.567C220.956 134.351 221.958 136.771 221.958 139.294V139.294Z" fill="#F0F0F0"/>
<path d="M311.979 202.162C317.72 203.17 323.539 203.668 329.367 203.65C327.086 206.316 324.152 208.346 320.853 209.542C317.553 210.738 314 211.058 310.54 210.472C307.079 209.886 303.83 208.414 301.108 206.199C298.386 203.983 296.284 201.1 295.008 197.831C300.528 199.766 306.206 201.215 311.979 202.162V202.162Z" fill="#F5F5F5"/>
<path d="M314.938 184.605C308.32 183.42 301.593 182.949 294.874 183.201C296.549 178.801 299.698 175.119 303.785 172.783C307.872 170.447 312.643 169.601 317.284 170.391C321.925 171.18 326.148 173.555 329.233 177.111C332.318 180.667 334.073 185.183 334.199 189.889C327.986 187.445 321.529 185.674 314.938 184.605V184.605Z" fill="#F5F5F5"/>
<path d="M345.49 195.732C346.136 191.908 332.54 186.422 315.122 183.479C297.704 180.536 283.06 181.251 282.414 185.075C281.767 188.899 295.364 194.385 312.782 197.328C330.2 200.271 344.844 199.556 345.49 195.732Z" fill="#F5F5F5"/>
<path d="M725.046 339.082C717.263 354.665 706.486 368.562 693.33 379.979C680.175 391.396 664.899 400.11 648.376 405.622C631.852 411.134 614.404 413.337 597.029 412.104C579.654 410.871 562.692 406.227 547.112 398.438C544.403 397.1 541.778 395.679 539.27 394.174C562.664 385.498 583.767 371.594 600.971 353.523C618.175 335.452 631.024 313.691 638.54 289.899C646.055 266.107 648.038 240.913 644.338 216.239C640.637 191.564 631.35 168.061 617.185 147.521C638.808 149.296 659.666 156.346 677.933 168.053C696.199 179.76 711.317 195.767 721.961 214.672C732.606 233.577 738.453 254.803 738.991 276.493C739.529 298.182 734.741 319.672 725.046 339.082V339.082Z" fill="#F5F5F5"/>
<path d="M664.386 182.833C667.954 185.469 670.895 188.86 673 192.765C675.104 196.67 676.319 200.992 676.558 205.422C671.928 199.023 666.333 193.383 659.972 188.702C653.637 183.999 646.624 180.289 639.172 177.7C643.493 176.639 647.995 176.549 652.355 177.436C656.715 178.324 660.824 180.167 664.386 182.833V182.833Z" fill="#F0F0F0"/>
<path d="M630.896 383.875C627.191 386.319 622.991 387.913 618.597 388.543C614.203 389.173 609.724 388.824 605.481 387.519C613.06 385.37 620.258 382.053 626.816 377.688C633.418 373.365 639.321 368.059 644.322 361.955C643.841 366.373 642.388 370.63 640.067 374.42C637.745 378.21 634.613 381.439 630.896 383.875V383.875Z" fill="#F0F0F0"/>
<path d="M676.592 257.638C678.492 261.65 679.477 266.033 679.477 270.471C679.477 274.909 678.492 279.292 676.592 283.304C675.554 275.493 673.297 267.893 669.904 260.782C666.564 253.64 662.155 247.049 656.829 241.236C661.129 242.343 665.131 244.387 668.548 247.223C671.964 250.059 674.711 253.616 676.592 257.638V257.638Z" fill="#F0F0F0"/>
<path d="M698.144 348.679C695.362 352.139 691.849 354.94 687.857 356.883C683.865 358.826 679.492 359.861 675.053 359.915C681.616 355.556 687.455 350.196 692.358 344.031C697.324 337.901 701.327 331.051 704.23 323.716C705.12 328.068 705.037 332.563 703.984 336.879C702.932 341.195 700.937 345.225 698.144 348.679V348.679Z" fill="#F0F0F0"/>
<path d="M418 714.88C597.042 714.88 742.184 706.406 742.184 695.953C742.184 685.5 597.042 677.026 418 677.026C238.958 677.026 93.8159 685.5 93.8159 695.953C93.8159 706.406 238.958 714.88 418 714.88Z" fill="#F5F5F5"/>
<path d="M425.273 222.092L424.103 221.172C429.369 214.484 434.904 208.197 440.555 202.312L441.608 203.349C435.99 209.184 430.49 215.504 425.273 222.092Z" fill="#407BFF"/>
<path d="M419.028 227.584L413.636 234.382L414.789 235.297L420.181 228.498L419.028 227.584Z" fill="#407BFF"/>
<path d="M535.04 299.656C571.373 241.253 576.322 183.703 549.871 165.077C523.42 146.451 470.902 170.494 428.149 224.382L305.976 378.491L431.242 466.705L535.04 299.656Z" fill="#407BFF"/>
<path opacity="0.1" d="M520.744 289.59L414.405 454.901L401.397 430.038L507.017 279.224C536.879 236.571 553.616 197.597 553.683 175.894C553.679 175.475 553.825 175.068 554.094 174.745C554.362 174.423 554.737 174.206 555.15 174.134C555.563 174.062 555.989 174.139 556.351 174.351C556.713 174.563 556.988 174.897 557.127 175.292C564.651 196.945 551.609 241.621 520.744 289.59Z" fill="white"/>
<path d="M431.167 466.666C448.078 442.649 433.742 403.431 399.147 379.072C364.551 354.713 322.797 354.436 305.886 378.453C288.974 402.471 303.31 441.688 337.906 466.047C372.502 490.407 414.256 490.684 431.167 466.666Z" fill="#407BFF"/>
<path opacity="0.5" d="M431.167 466.666C448.078 442.649 433.742 403.431 399.147 379.072C364.551 354.713 322.797 354.436 305.886 378.453C288.974 402.471 303.31 441.688 337.906 466.047C372.502 490.407 414.256 490.684 431.167 466.666Z" fill="white"/>
<path opacity="0.1" d="M418.167 351.856C390.679 332.494 359.497 326.96 339.583 336.005L308.567 375.096C326.959 354.564 366.268 355.969 399.14 379.109C432.011 402.25 446.608 438.85 433.432 463.044L459.465 421.244C461.706 399.29 445.956 371.418 418.167 351.856Z" fill="#333333"/>
<path opacity="0.2" d="M462.191 225.82C454.567 237.892 448.815 260.481 471.471 276.415C494.126 292.349 513.454 279.358 522.232 268.055L462.191 225.82Z" fill="#333333"/>
<path d="M527.583 254.144C524.991 275.713 500.062 291.446 473.895 273.021C447.728 254.595 454.132 225.82 473.56 216.173C485.532 210.187 500.78 212.829 511.214 220.085C521.647 227.342 529.188 240.768 527.583 254.144Z" fill="white"/>
<path d="M477.456 267.921C467.274 260.765 462.057 251.402 462.793 241.604C463.127 237.375 464.55 233.305 466.923 229.789C469.297 226.273 472.539 223.431 476.336 221.54C485.432 216.992 498.306 218.413 507.653 224.984C516.999 231.555 522.701 243.226 521.447 253.325C520.949 257.525 519.375 261.526 516.876 264.939C514.377 268.352 511.039 271.061 507.185 272.804C498.256 276.85 487.639 275.094 477.456 267.921Z" fill="#407BFF"/>
<path opacity="0.3" d="M477.456 267.921C467.274 260.765 462.057 251.402 462.793 241.604C463.127 237.375 464.55 233.305 466.923 229.789C469.297 226.273 472.539 223.431 476.336 221.54C485.432 216.992 498.306 218.413 507.653 224.984C516.999 231.555 522.701 243.226 521.447 253.325C520.949 257.525 519.375 261.526 516.876 264.939C514.377 268.352 511.039 271.061 507.185 272.804C498.256 276.85 487.639 275.094 477.456 267.921Z" fill="#333333"/>
<path d="M477.456 267.921C467.274 260.765 461.873 251.669 462.274 242.34C462.448 238.373 463.714 234.531 465.933 231.239C468.151 227.946 471.236 225.33 474.848 223.68C483.592 219.634 496.216 221.406 505.562 227.994C514.909 234.582 520.828 245.868 519.958 255.465C519.621 259.427 518.192 263.218 515.831 266.417C513.47 269.616 510.269 272.099 506.582 273.589C498.005 277.117 487.638 275.094 477.456 267.921Z" fill="#407BFF"/>
<path opacity="0.2" d="M477.456 267.921C467.274 260.765 461.873 251.669 462.274 242.34C462.448 238.373 463.714 234.531 465.933 231.239C468.151 227.946 471.236 225.33 474.848 223.68C483.592 219.634 496.216 221.406 505.562 227.994C514.909 234.582 520.828 245.868 519.958 255.465C519.621 259.427 518.192 263.218 515.831 266.417C513.47 269.616 510.269 272.099 506.582 273.589C498.005 277.117 487.638 275.094 477.456 267.921Z" fill="white"/>
<path opacity="0.3" d="M512.652 234.598L465.585 255.365C463.251 251.431 462.09 246.911 462.241 242.34C462.33 240.186 462.753 238.06 463.495 236.036L493.875 222.66C501.249 224.529 507.822 228.728 512.618 234.632L512.652 234.598Z" fill="white"/>
<path opacity="0.3" d="M519.407 247.991L476.219 267.018C473.622 265.113 471.254 262.914 469.163 260.464L516.146 239.731C517.614 242.318 518.712 245.099 519.407 247.991V247.991Z" fill="white"/>
<path opacity="0.1" d="M566.49 210.756C565.052 199.219 556.191 185.876 542.179 176.011C528.168 166.147 512.635 162.301 501.282 164.826C520.594 156.951 537.899 156.65 549.871 165.077C561.842 173.503 567.393 189.922 566.49 210.756Z" fill="#333333"/>
<path opacity="0.5" d="M399.121 419.636C404.389 412.154 400.122 400.076 389.589 392.66C379.056 385.244 366.247 385.297 360.978 392.779C355.71 400.262 359.977 412.34 370.51 419.756C381.043 427.172 393.852 427.118 399.121 419.636Z" fill="#407BFF"/>
<path opacity="0.5" d="M349.448 412.616C344.181 420.09 331.374 420.157 320.84 412.733C310.306 405.31 306.026 393.238 311.293 385.764C316.56 378.29 329.384 378.223 339.917 385.647C350.451 393.07 354.648 405.142 349.448 412.616Z" fill="#407BFF"/>
<path opacity="0.5" d="M422.531 464.13C417.264 471.621 404.457 471.671 393.923 464.247C383.39 456.824 379.126 444.752 384.393 437.278C389.66 429.804 402.467 429.737 413.001 437.161C423.534 444.585 427.798 456.657 422.531 464.13Z" fill="#407BFF"/>
<path opacity="0.5" d="M372.856 457.091C367.589 464.565 354.782 464.615 344.248 457.208C333.714 449.801 329.451 437.713 334.718 430.222C339.984 422.732 352.792 422.698 363.325 430.105C373.859 437.512 378.056 449.601 372.856 457.091Z" fill="#407BFF"/>
<path opacity="0.5" d="M399.14 419.672C398.583 420.462 397.931 421.18 397.2 421.812C400.126 414.355 395.712 404.005 386.299 397.384C376.885 390.763 365.666 390.094 359.63 395.344C359.985 394.454 360.439 393.607 360.985 392.82C366.251 385.346 379.076 385.279 389.609 392.703C400.143 400.126 404.39 412.181 399.14 419.672Z" fill="#407BFF"/>
<path opacity="0.5" d="M349.448 412.616C348.893 413.402 348.247 414.121 347.525 414.756C350.451 407.282 346.054 396.95 336.623 390.312C327.193 383.674 315.991 383.022 309.955 388.289C310.306 387.397 310.761 386.549 311.309 385.764C316.576 378.273 329.384 378.223 339.917 385.647C350.451 393.07 354.648 405.126 349.448 412.616Z" fill="#407BFF"/>
<path opacity="0.5" d="M422.531 464.147C421.976 464.928 421.33 465.641 420.608 466.271C423.534 458.797 419.12 448.464 409.707 441.843C400.294 435.222 389.074 434.536 383.039 439.82C383.386 438.921 383.841 438.068 384.393 437.278C389.66 429.788 402.467 429.737 413.001 437.161C423.534 444.585 427.815 456.657 422.531 464.147Z" fill="#407BFF"/>
<path opacity="0.5" d="M372.856 457.091C372.31 457.88 371.663 458.593 370.933 459.215C373.859 451.758 369.445 441.408 360.032 434.787C350.618 428.166 339.399 427.497 333.363 432.764C333.707 431.864 334.162 431.01 334.718 430.222C339.984 422.732 352.792 422.698 363.326 430.105C373.859 437.512 378.056 449.601 372.856 457.091Z" fill="#407BFF"/>
<path d="M388.874 281.281C388.874 281.281 366.302 310.574 346.639 335.788C343.847 339.303 340.188 342.031 336.023 343.705C331.857 345.379 327.328 345.941 322.88 345.335C305.708 343.211 277.736 355.367 277.736 355.367C277.736 355.367 330.655 268.44 388.874 281.281Z" fill="#407BFF"/>
<path opacity="0.3" d="M388.874 281.281C388.874 281.281 366.302 310.574 346.639 335.788C343.847 339.303 340.188 342.031 336.023 343.705C331.857 345.379 327.328 345.941 322.88 345.335C305.708 343.211 277.736 355.367 277.736 355.367C277.736 355.367 330.655 268.44 388.874 281.281Z" fill="#333333"/>
<path d="M494.728 355.835C494.728 355.835 474.848 386.951 457.643 413.954C455.276 417.767 453.942 422.131 453.771 426.616C453.601 431.101 454.601 435.554 456.673 439.535C464.465 455.001 462.425 485.499 462.425 485.499C462.425 485.499 526.446 406.296 494.728 355.835Z" fill="#407BFF"/>
<path opacity="0.3" d="M494.728 355.835C494.728 355.835 474.848 386.951 457.643 413.954C455.276 417.767 453.942 422.131 453.771 426.616C453.601 431.101 454.601 435.554 456.673 439.535C464.465 455.001 462.425 485.499 462.425 485.499C462.425 485.499 526.446 406.296 494.728 355.835Z" fill="#333333"/>
<path d="M567.661 579.532C588.544 528.436 498.256 513.956 462.525 526.78C426.795 539.605 390.362 549.135 388.957 514.943C387.553 480.75 415.074 459.549 401.949 451.657C394.675 447.277 392.602 455.001 389.007 466.271C378.006 500.797 315.69 509.024 344.365 559C373.04 608.976 357.741 598.125 309.504 618.172C261.267 638.219 286.096 695.953 332.761 695.953H613.791C742.602 695.953 620.646 449.4 567.661 579.532Z" fill="#407BFF"/>
<path opacity="0.6" d="M567.661 579.532C588.544 528.436 498.256 513.956 462.525 526.78C426.795 539.605 390.362 549.135 388.957 514.943C387.553 480.75 415.074 459.549 401.949 451.657C394.675 447.277 392.602 455.001 389.007 466.271C378.006 500.797 315.69 509.024 344.365 559C373.04 608.976 357.741 598.125 309.504 618.172C261.267 638.219 286.096 695.953 332.761 695.953H613.791C742.602 695.953 620.646 449.4 567.661 579.532Z" fill="white"/>
<path d="M330.304 401.43C326.558 388.422 306.294 404.774 286.33 424.588C266.366 444.401 256.518 489.628 237.207 513.204C217.895 536.779 162.602 558.08 184.221 593.56C216.106 645.843 142.822 696.003 229.616 696.003H407.634C440.187 696.003 475.483 656.193 424.788 629.123C374.093 602.054 298.151 665.172 277.652 604.963C267.486 575.084 304.404 588.795 287.3 539.872C270.195 490.949 271.332 477.624 280.043 455.821C301.244 402.684 336.072 421.194 330.304 401.43Z" fill="#407BFF"/>
<path opacity="0.6" d="M330.304 401.43C326.558 388.422 306.294 404.774 286.33 424.588C266.366 444.401 256.518 489.628 237.207 513.204C217.895 536.779 162.602 558.08 184.221 593.56C216.106 645.843 142.822 696.003 229.616 696.003H407.634C440.187 696.003 475.483 656.193 424.788 629.123C374.093 602.054 298.151 665.172 277.652 604.963C267.486 575.084 304.404 588.795 287.3 539.872C270.195 490.949 271.332 477.624 280.043 455.821C301.244 402.684 336.072 421.194 330.304 401.43Z" fill="white"/>
<path d="M367.205 407.433C371.619 399.374 386.767 404.206 386.433 414.756C386.098 425.307 346.873 439.134 354.163 475.567C361.453 512 431.476 514.608 447.912 551.108C464.348 587.608 400.678 592.724 419.672 615.547C438.666 638.37 497.286 585.952 539.053 599.429C580.819 612.905 622.553 695.953 545.941 695.953H309.872C258.541 695.953 221.055 589.965 270.379 546.359C319.703 502.754 279.91 516.915 298.318 488.976C316.727 461.037 350.267 438.331 367.205 407.433Z" fill="#407BFF"/>
<path opacity="0.8" d="M367.205 407.433C371.619 399.374 386.767 404.206 386.433 414.756C386.098 425.307 346.873 439.134 354.163 475.567C361.453 512 431.476 514.608 447.912 551.108C464.348 587.608 400.678 592.724 419.672 615.547C438.666 638.37 497.286 585.952 539.053 599.429C580.819 612.905 622.553 695.953 545.941 695.953H309.872C258.541 695.953 221.055 589.965 270.379 546.359C319.703 502.754 279.91 516.915 298.318 488.976C316.727 461.037 350.267 438.331 367.205 407.433Z" fill="white"/>
</svg>
