<svg width="50" height="52" viewBox="0 0 50 52" fill="none" xmlns="http://www.w3.org/2000/svg">
<g clip-path="url(#clip0_204_447)">
<path opacity="0.4" d="M45.8327 25.9998C45.8327 37.5081 36.5056 46.8331 24.9993 46.8331C13.4931 46.8331 4.16602 37.5081 4.16602 25.9998C4.16602 14.4956 13.4931 5.16644 24.9993 5.16644C36.5056 5.16644 45.8327 14.4956 45.8327 25.9998Z" fill="#334D6E"/>
<path d="M32.4447 33.9467C32.1717 33.9467 31.8967 33.8758 31.6447 33.7279L23.4655 28.8488C22.9947 28.5654 22.7051 28.055 22.7051 27.505V16.9904C22.7051 16.1279 23.4051 15.4279 24.2676 15.4279C25.1301 15.4279 25.8301 16.1279 25.8301 16.9904V26.6175L33.2467 31.0404C33.9863 31.4842 34.2301 32.4425 33.7884 33.1842C33.4947 33.6738 32.9759 33.9467 32.4447 33.9467Z" fill="#334D6E"/>
</g>
<defs>
<clipPath id="clip0_204_447">
<rect width="50" height="50.8361" fill="white" transform="translate(0 0.688965)"/>
</clipPath>
</defs>
</svg>
